<?xml version="1.0" encoding="UTF-8" ?>
<!DOCTYPE svg PUBLIC "-//W3C//DTD SVG 1.1//EN" "http://www.w3.org/Graphics/SVG/1.1/DTD/svg11.dtd">
<svg width="100%" height="100%" viewBox="0 0 300 300" version="1.1" xmlns="http://www.w3.org/2000/svg">
<path fill="#51b2b0" d=" M 0.00 0.00 L 300.00 0.00 L 300.00 300.00 L 0.00 300.00 L 0.00 0.00 Z" />
<path fill="#000000" d=" M 49.47 35.73 C 63.32 34.78 77.24 34.87 91.07 36.07 C 93.41 36.35 96.07 36.35 97.91 38.06 C 99.92 39.78 99.99 42.61 100.26 45.03 C 101.64 60.62 101.62 76.34 100.23 91.93 C 99.95 94.11 99.84 96.58 98.16 98.21 C 96.59 99.86 94.20 100.05 92.07 100.33 C 76.15 101.77 60.10 101.77 44.18 100.33 C 41.99 100.07 39.50 99.84 37.95 98.05 C 36.15 96.12 36.22 93.32 35.92 90.87 C 34.61 75.26 34.63 59.52 36.08 43.92 C 36.22 41.19 37.20 38.03 40.01 36.99 C 43.04 35.95 46.31 36.05 49.47 35.73 Z" />
<path fill="#000000" d=" M 211.49 35.85 C 226.00 34.76 240.60 34.83 255.10 36.10 C 257.41 36.35 260.05 36.49 261.78 38.27 C 263.79 40.32 263.67 43.39 263.99 46.03 C 265.27 62.03 265.31 78.17 263.59 94.13 C 263.41 97.46 260.51 100.04 257.23 100.14 C 240.49 101.83 223.57 101.83 206.82 100.21 C 203.37 100.21 200.06 97.72 199.94 94.11 C 198.14 77.82 198.24 61.34 199.61 45.01 C 199.85 42.36 200.10 39.20 202.55 37.59 C 205.20 35.93 208.50 36.23 211.49 35.85 Z" />
<path fill="#000000" d=" M 136.36 36.08 C 138.61 36.85 141.11 37.41 142.81 39.19 C 144.50 40.90 144.98 43.33 145.75 45.51 C 154.62 45.50 163.50 45.48 172.38 45.52 C 172.75 42.90 172.53 39.70 174.85 37.89 C 177.68 35.69 181.57 36.37 184.91 36.43 C 188.25 36.52 190.99 39.54 190.86 42.87 C 191.06 46.79 191.56 52.30 187.09 54.09 C 182.39 55.24 177.43 54.38 172.63 54.62 C 172.62 57.66 172.62 60.71 172.63 63.75 C 178.84 63.76 185.05 63.71 191.26 63.79 C 190.24 66.88 189.07 70.45 185.78 71.82 C 181.63 73.50 176.99 72.51 172.64 72.74 C 172.63 75.92 172.63 79.09 172.56 82.27 C 170.28 81.43 167.72 80.84 166.02 78.97 C 164.43 77.25 163.96 74.88 163.22 72.74 C 157.27 72.76 151.32 72.74 145.38 72.75 C 145.38 75.70 145.37 78.66 145.33 81.61 C 148.65 81.81 153.08 82.20 154.12 86.08 C 154.93 90.57 154.38 95.19 154.45 99.73 C 157.01 100.12 160.08 99.91 161.94 102.08 C 163.72 103.97 163.52 106.74 163.87 109.12 C 169.83 109.12 175.79 109.12 181.75 109.12 C 181.75 103.09 181.75 97.05 181.75 91.01 C 178.61 91.00 175.47 91.01 172.33 90.90 C 173.21 87.45 174.84 83.65 178.55 82.49 C 181.96 81.58 186.40 81.09 189.14 83.81 C 191.28 85.95 190.82 89.20 190.91 91.94 C 190.78 98.66 191.01 105.38 190.82 112.09 C 190.86 115.21 188.26 118.10 185.10 118.16 C 181.02 118.42 176.93 118.21 172.84 118.23 C 172.72 121.49 172.41 125.69 168.74 126.88 C 164.08 127.93 159.23 127.17 154.50 127.36 C 154.50 130.37 154.50 133.37 154.50 136.38 C 163.71 136.42 172.93 136.27 182.14 136.46 C 181.32 138.73 180.77 141.26 178.95 142.97 C 177.22 144.62 174.80 145.12 172.62 145.89 C 172.58 149.95 172.79 154.01 172.55 158.07 C 172.47 160.96 169.93 163.46 167.07 163.63 C 162.89 163.94 158.69 163.69 154.51 163.74 C 154.50 166.74 154.50 169.74 154.49 172.74 C 157.64 172.75 160.79 172.74 163.93 172.80 C 163.04 176.31 161.36 180.18 157.57 181.31 C 154.16 182.14 149.73 182.70 147.05 179.90 C 145.27 178.06 145.49 175.32 145.14 172.99 C 141.85 172.93 137.64 172.28 136.63 168.54 C 135.80 163.98 136.41 159.29 136.26 154.68 C 133.12 154.55 129.62 155.23 127.03 153.01 C 128.34 150.21 129.98 147.05 133.19 146.10 C 137.15 145.05 141.32 145.61 145.38 145.50 C 145.37 127.33 145.38 109.17 145.37 91.00 C 142.33 91.00 139.29 91.00 136.25 91.00 C 136.25 94.15 136.26 97.29 136.21 100.44 C 132.56 99.51 128.59 97.59 127.63 93.58 C 127.04 90.39 126.56 86.49 128.88 83.85 C 130.70 81.72 133.77 82.05 136.27 81.62 C 136.25 78.66 136.25 75.71 136.25 72.75 C 133.33 72.75 130.41 72.75 127.50 72.74 C 127.38 76.08 126.82 80.56 122.93 81.54 C 118.21 82.28 113.40 81.78 108.64 81.78 C 109.41 79.65 109.95 77.30 111.56 75.60 C 113.27 73.74 115.84 73.22 118.13 72.45 C 118.18 68.26 117.92 64.06 118.25 59.88 C 118.49 56.98 121.22 54.69 124.09 54.68 C 128.14 54.48 132.20 54.67 136.25 54.63 C 136.29 48.45 136.15 42.26 136.36 36.08 Z" />
<path fill="#51b2b0" d=" M 49.43 45.70 C 61.53 44.22 73.80 44.30 85.91 45.55 C 88.00 45.64 90.31 46.76 90.58 49.06 C 92.18 61.34 92.07 73.83 90.80 86.13 C 90.77 88.33 89.37 90.60 87.00 90.76 C 75.41 92.23 63.64 92.17 52.01 91.13 C 50.36 90.89 48.53 90.92 47.10 89.92 C 45.65 88.79 45.53 86.81 45.31 85.13 C 44.19 73.44 44.16 61.62 45.50 49.95 C 45.57 47.76 47.19 45.83 49.43 45.70 Z" />
<path fill="#51b2b0" d=" M 212.52 45.80 C 224.28 44.20 236.24 44.35 248.05 45.38 C 249.76 45.61 251.72 45.63 253.10 46.84 C 254.37 48.21 254.38 50.21 254.62 51.95 C 255.67 63.56 255.72 75.30 254.32 86.88 C 254.17 89.10 252.30 90.81 250.09 90.85 C 238.14 92.23 226.03 92.21 214.07 90.95 C 211.77 90.95 209.33 89.55 209.22 87.04 C 207.74 74.74 207.76 62.25 209.14 49.95 C 209.22 48.00 210.49 46.09 212.52 45.80 Z" />
<path fill="#000000" d=" M 108.88 45.40 C 111.75 45.67 115.50 44.75 117.37 47.59 C 118.51 49.74 117.99 52.37 118.23 54.73 C 115.71 54.42 112.66 55.27 110.58 53.43 C 108.27 51.44 109.23 48.05 108.88 45.40 Z" />
<path fill="#000000" d=" M 58.48 54.79 C 64.78 53.91 71.22 53.92 77.53 54.75 C 79.41 54.91 81.26 56.13 81.48 58.13 C 82.50 64.66 82.45 71.37 81.58 77.92 C 81.41 79.83 79.92 81.48 77.97 81.67 C 71.39 82.59 64.63 82.62 58.04 81.62 C 56.14 81.40 54.83 79.70 54.65 77.87 C 53.79 71.42 53.75 64.81 54.71 58.37 C 54.91 56.40 56.55 54.96 58.48 54.79 Z" />
<path fill="#000000" d=" M 222.38 54.74 C 228.72 53.92 235.19 53.90 241.52 54.81 C 243.46 54.99 245.00 56.54 245.19 58.48 C 246.10 64.78 246.07 71.24 245.27 77.55 C 245.12 79.43 243.95 81.34 241.95 81.59 C 235.36 82.63 228.59 82.58 221.99 81.68 C 220.06 81.52 218.48 79.93 218.31 78.00 C 217.42 71.43 217.37 64.69 218.39 58.13 C 218.62 56.12 220.49 54.89 222.38 54.74 Z" />
<path fill="#51b2b0" d=" M 145.37 63.75 C 145.37 60.71 145.37 57.66 145.38 54.62 C 151.46 54.63 157.54 54.62 163.63 54.63 C 163.62 57.67 163.63 60.71 163.62 63.76 C 157.53 63.74 151.45 63.75 145.37 63.75 Z" />
<path fill="#000000" d=" M 108.89 90.90 C 111.65 91.21 115.23 90.22 117.18 92.78 C 118.58 94.92 117.96 97.68 118.24 100.10 C 115.45 99.77 111.73 100.84 109.85 98.11 C 108.53 95.97 109.15 93.28 108.89 90.90 Z" />
<path fill="#000000" d=" M 163.53 90.88 C 166.34 91.21 170.14 90.19 171.93 93.07 C 173.05 95.20 172.49 97.78 172.73 100.10 C 169.84 99.80 165.85 100.85 164.18 97.74 C 163.29 95.58 163.71 93.15 163.53 90.88 Z" />
<path fill="#000000" d=" M 36.17 109.05 C 38.50 109.25 41.07 108.71 43.22 109.83 C 46.17 111.64 45.18 115.50 45.47 118.37 C 42.79 118.03 39.34 118.96 37.37 116.59 C 35.67 114.48 36.43 111.54 36.17 109.05 Z" />
<path fill="#000000" d=" M 54.58 108.72 C 56.81 109.60 59.34 110.17 61.05 111.98 C 62.67 113.69 63.16 116.08 63.93 118.23 C 66.96 118.24 69.99 118.24 73.02 118.37 C 72.08 122.41 69.59 126.74 65.01 127.14 C 58.36 127.68 51.67 127.28 45.01 127.31 C 45.83 125.14 46.31 122.70 47.99 120.99 C 49.70 119.19 52.22 118.67 54.47 117.87 C 54.50 114.82 54.50 111.76 54.58 108.72 Z" />
<path fill="#000000" d=" M 72.54 109.04 C 74.95 109.29 77.74 108.58 79.86 110.05 C 82.54 111.96 81.54 115.56 81.84 118.36 C 79.29 118.01 76.12 118.93 74.07 116.93 C 71.97 114.87 72.81 111.66 72.54 109.04 Z" />
<path fill="#000000" d=" M 90.77 109.02 C 93.35 109.33 96.51 108.47 98.57 110.48 C 100.64 112.53 99.80 115.74 100.13 118.35 C 97.32 118.04 93.61 119.04 91.71 116.33 C 90.47 114.14 91.01 111.43 90.77 109.02 Z" />
<path fill="#000000" d=" M 122.40 109.48 C 126.90 108.88 133.79 107.82 135.85 113.14 C 136.71 118.70 136.14 124.40 136.22 130.02 C 136.49 133.47 133.44 136.56 129.99 136.37 C 126.02 136.50 120.27 137.21 118.58 132.52 C 117.61 127.08 118.27 121.46 118.14 115.95 C 117.96 113.16 119.62 110.26 122.40 109.48 Z" />
<path fill="#000000" d=" M 218.05 109.04 C 220.58 109.31 223.62 108.51 225.71 110.35 C 227.90 112.38 227.04 115.71 227.38 118.36 C 224.53 118.06 220.75 119.02 218.88 116.20 C 217.68 114.05 218.27 111.41 218.05 109.04 Z" />
<path fill="#000000" d=" M 245.29 109.05 C 247.40 109.14 249.56 108.95 251.63 109.48 C 254.78 110.79 255.34 115.11 253.81 117.81 C 251.03 118.94 246.96 118.48 245.71 115.36 C 245.20 113.30 245.39 111.15 245.29 109.05 Z" />
<path fill="#000000" d=" M 190.91 124.90 C 190.67 121.79 192.92 118.65 196.12 118.38 C 200.54 118.04 204.97 118.29 209.40 118.31 C 208.63 120.46 208.09 122.82 206.48 124.54 C 204.79 126.36 202.26 126.90 200.00 127.65 C 200.00 130.56 200.00 133.47 200.00 136.38 C 204.72 136.59 209.56 135.80 214.19 136.88 C 219.34 138.91 218.29 145.51 217.87 149.90 C 217.18 153.96 212.66 154.83 209.23 154.83 C 208.88 157.29 209.15 160.27 207.05 162.04 C 205.16 163.84 202.39 163.64 200.00 163.98 C 200.00 166.82 200.00 169.67 200.00 172.51 C 202.50 172.89 205.51 172.66 207.34 174.75 C 209.23 176.64 208.88 179.51 209.23 181.94 C 212.11 181.87 214.99 181.87 217.88 181.87 C 217.92 178.28 218.77 173.58 223.05 172.96 C 227.31 172.59 233.43 171.64 235.68 176.35 C 236.89 181.10 236.01 186.13 236.24 190.99 C 243.54 191.11 250.84 190.80 258.13 191.10 C 261.54 191.26 263.82 194.71 263.64 197.93 C 263.87 201.74 264.07 207.04 259.73 208.67 C 256.33 209.43 252.68 209.42 249.29 208.68 C 245.65 207.46 245.26 203.25 245.17 200.00 C 239.19 200.00 233.22 200.00 227.25 200.00 C 227.25 203.04 227.25 206.07 227.25 209.11 C 230.38 209.12 233.51 209.11 236.64 209.22 C 235.87 211.41 235.35 213.86 233.65 215.57 C 231.92 217.31 229.43 217.82 227.21 218.62 C 227.28 224.45 227.25 230.29 227.24 236.13 C 230.19 236.43 233.91 236.48 235.46 239.53 C 236.80 242.48 236.26 245.89 236.18 249.04 C 236.06 252.20 233.13 254.63 230.05 254.61 C 226.72 254.59 222.74 255.37 220.05 252.90 C 218.00 251.10 218.23 248.15 217.85 245.70 C 214.68 245.59 210.69 245.16 209.50 241.65 C 208.44 236.99 209.21 232.12 209.00 227.37 C 202.97 227.37 196.93 227.37 190.89 227.37 C 190.88 230.51 190.89 233.64 190.74 236.77 C 187.62 235.87 184.09 234.62 182.72 231.36 C 181.08 227.29 181.91 222.77 181.79 218.50 C 178.11 218.48 173.20 217.49 172.79 213.01 C 172.36 205.69 172.75 198.35 172.63 191.02 C 169.50 191.00 166.37 191.01 163.24 190.89 C 164.14 187.71 165.42 184.15 168.74 182.79 C 172.79 181.22 177.27 182.03 181.51 181.92 C 181.89 179.44 181.60 176.49 183.57 174.60 C 185.47 172.63 188.43 172.89 190.92 172.50 C 190.87 169.66 190.87 166.82 190.87 163.98 C 187.62 163.79 183.39 163.43 182.21 159.77 C 181.21 154.98 181.93 150.00 181.81 145.14 C 183.93 145.93 186.31 146.43 188.01 148.04 C 189.88 149.75 190.41 152.35 191.25 154.64 C 194.17 154.63 197.08 154.62 200.00 154.63 C 200.00 151.66 200.00 148.68 200.00 145.71 C 196.55 145.67 191.90 145.06 191.14 140.94 C 190.57 135.62 190.91 130.24 190.91 124.90 Z" />
<path fill="#000000" d=" M 255.17 119.18 C 256.44 117.90 258.08 118.98 259.36 119.68 C 263.67 122.39 264.60 128.46 262.92 132.95 C 261.53 136.30 257.57 136.40 254.48 136.60 C 254.50 139.48 254.50 142.37 254.49 145.26 C 256.95 145.61 259.85 145.37 261.74 147.30 C 264.30 149.83 263.50 153.72 263.66 156.95 C 263.44 160.95 264.16 165.09 263.08 168.99 C 261.83 172.56 257.70 172.86 254.51 172.99 C 254.50 176.10 254.50 179.21 254.43 182.33 C 252.18 181.45 249.65 180.87 247.92 179.07 C 246.29 177.35 245.80 174.94 245.04 172.77 C 241.99 172.75 238.95 172.75 235.92 172.62 C 236.92 169.46 238.21 165.86 241.59 164.56 C 245.72 163.11 250.21 163.93 254.50 163.76 C 254.50 160.79 254.50 157.83 254.50 154.87 C 251.13 154.79 246.69 154.18 245.71 150.28 C 244.95 145.70 245.53 141.01 245.38 136.39 C 242.24 136.37 239.10 136.38 235.97 136.30 C 236.88 133.20 238.08 129.74 241.29 128.34 C 245.44 126.60 250.09 127.62 254.45 127.39 C 254.63 124.66 254.01 121.73 255.17 119.18 Z" />
<path fill="#000000" d=" M 72.69 127.00 C 74.89 127.75 77.32 128.25 79.02 129.94 C 80.71 131.60 81.28 133.98 82.09 136.12 C 84.43 136.47 87.13 136.38 88.95 138.14 C 90.98 140.02 90.76 143.02 91.22 145.52 C 94.14 145.50 97.06 145.50 99.98 145.50 C 99.99 142.37 99.99 139.23 100.14 136.11 C 102.19 136.86 104.47 137.33 106.12 138.87 C 107.96 140.54 108.56 143.05 109.38 145.30 C 111.63 145.62 114.21 145.44 116.02 147.06 C 118.26 148.90 117.97 152.05 118.37 154.64 C 121.47 154.82 125.00 153.83 127.67 155.87 C 126.15 158.72 124.58 162.11 121.21 163.12 C 117.58 164.15 113.73 163.66 110.01 163.79 C 107.29 163.69 104.11 164.12 101.96 162.07 C 99.76 160.24 100.11 157.14 99.76 154.60 C 96.91 154.62 94.06 154.63 91.21 154.61 C 90.77 157.09 90.98 160.06 88.99 161.95 C 86.30 164.46 82.29 163.75 78.94 163.72 C 75.80 163.73 72.84 161.22 72.73 158.01 C 72.44 153.84 72.68 149.67 72.64 145.50 C 69.72 145.50 66.80 145.50 63.88 145.50 C 63.52 148.16 63.70 151.46 61.26 153.24 C 59.24 154.94 56.44 154.57 53.99 154.66 C 50.03 154.59 46.05 154.77 42.09 154.55 C 39.19 154.46 36.59 152.02 36.38 149.12 C 36.05 144.78 36.26 140.42 36.37 136.08 C 38.62 136.86 41.11 137.41 42.82 139.20 C 44.49 140.90 44.99 143.33 45.76 145.51 C 48.59 145.50 51.42 145.50 54.26 145.51 C 54.34 142.18 54.86 137.81 58.70 136.78 C 63.27 135.90 67.99 136.55 72.61 136.38 C 72.63 133.26 72.62 130.13 72.69 127.00 Z" />
<path fill="#000000" d=" M 90.77 127.27 C 93.48 127.60 97.00 126.58 98.93 129.10 C 100.55 131.16 99.81 134.03 100.08 136.46 C 97.24 136.18 93.47 137.19 91.60 134.37 C 90.50 132.21 91.00 129.62 90.77 127.27 Z" />
<path fill="#000000" d=" M 218.04 127.30 C 220.34 127.47 222.83 127.00 224.99 127.99 C 227.95 129.73 227.08 133.61 227.38 136.47 C 224.49 136.16 220.58 137.22 218.78 134.23 C 217.73 132.10 218.24 129.59 218.04 127.30 Z" />
<path fill="#000000" d=" M 227.35 145.18 C 230.72 146.09 234.45 147.64 235.63 151.27 C 236.80 155.42 236.11 159.81 236.19 164.07 C 232.82 163.12 229.09 161.59 227.89 157.97 C 226.67 153.84 227.38 149.42 227.35 145.18 Z" />
<path fill="#000000" d=" M 36.14 163.65 C 38.88 164.01 42.54 162.92 44.45 165.53 C 45.90 167.65 45.22 170.42 45.46 172.83 C 43.05 172.59 40.31 173.27 38.17 171.89 C 35.53 170.00 36.45 166.41 36.14 163.65 Z" />
<path fill="#000000" d=" M 63.69 163.32 C 65.79 164.11 68.13 164.62 69.82 166.20 C 71.68 167.89 72.19 170.46 73.00 172.73 C 76.06 172.75 79.11 172.75 82.16 172.80 C 81.33 174.96 80.85 177.41 79.18 179.12 C 77.43 180.92 74.88 181.47 72.62 182.33 C 72.63 185.34 72.63 188.36 72.55 191.37 C 70.24 190.52 67.65 189.91 65.95 187.99 C 64.44 186.27 63.94 183.98 63.24 181.88 C 57.17 181.84 51.09 181.98 45.03 181.75 C 45.97 178.56 47.31 174.98 50.67 173.65 C 54.80 172.13 59.32 172.91 63.62 172.75 C 63.63 169.61 63.62 166.46 63.69 163.32 Z" />
<path fill="#000000" d=" M 90.75 163.65 C 93.39 163.98 96.72 163.00 98.75 165.22 C 100.61 167.29 99.82 170.32 100.02 172.85 C 97.14 172.55 93.18 173.59 91.47 170.51 C 90.57 168.36 90.96 165.92 90.75 163.65 Z" />
<path fill="#000000" d=" M 208.88 163.65 C 211.69 163.96 215.44 162.93 217.32 165.69 C 218.48 167.85 218.01 170.47 218.24 172.84 C 215.85 172.60 213.17 173.22 211.01 171.97 C 208.26 170.13 209.19 166.44 208.88 163.65 Z" />
<path fill="#000000" d=" M 100.08 172.49 C 102.31 173.23 104.79 173.78 106.46 175.56 C 108.13 177.30 108.65 179.73 109.40 181.94 C 115.45 181.82 121.50 181.88 127.55 181.90 C 126.78 184.17 126.24 186.72 124.41 188.43 C 122.68 190.08 120.26 190.60 118.08 191.37 C 118.13 194.38 118.13 197.39 118.11 200.40 C 115.87 199.66 113.39 199.12 111.68 197.38 C 109.98 195.65 109.43 193.20 108.65 190.99 C 99.57 190.96 90.49 191.10 81.41 190.91 C 82.28 187.53 83.83 183.82 87.41 182.58 C 91.47 181.33 95.80 182.02 99.99 181.89 C 100.00 178.75 99.99 175.62 100.08 172.49 Z" />
<path fill="#000000" d=" M 127.16 172.64 C 129.72 172.97 132.90 172.09 134.94 174.13 C 137.00 176.17 135.99 179.39 136.24 181.96 C 133.43 181.69 129.71 182.63 127.93 179.77 C 126.81 177.60 127.40 174.99 127.16 172.64 Z" />
<path fill="#000000" d=" M 36.14 181.77 C 39.09 182.07 43.19 181.09 44.86 184.31 C 45.67 186.47 45.30 188.86 45.47 191.13 C 42.85 190.78 39.53 191.69 37.53 189.49 C 35.61 187.41 36.45 184.31 36.14 181.77 Z" />
<path fill="#000000" d=" M 136.33 181.51 C 139.91 182.38 143.84 184.20 144.88 188.09 C 145.61 191.28 146.05 195.18 143.88 197.92 C 142.06 200.27 138.81 199.88 136.20 200.24 C 136.25 203.20 136.26 206.15 136.26 209.11 C 139.42 209.12 142.58 209.11 145.74 209.21 C 144.84 213.17 142.52 217.47 138.06 218.00 C 131.29 218.60 124.46 218.12 117.67 218.20 C 118.55 216.02 119.08 213.54 120.80 211.82 C 122.55 210.09 125.03 209.54 127.26 208.72 C 127.47 204.05 126.67 199.26 127.74 194.69 C 128.97 191.15 133.09 191.19 136.13 190.58 C 136.38 187.57 136.24 184.53 136.33 181.51 Z" />
<path fill="#51b2b0" d=" M 190.88 191.00 C 199.96 191.00 209.04 191.00 218.12 191.00 C 218.12 200.08 218.12 209.17 218.12 218.25 C 209.04 218.25 199.96 218.25 190.88 218.25 C 190.88 209.17 190.88 200.08 190.88 191.00 Z" />
<path fill="#000000" d=" M 44.33 199.78 C 60.06 198.37 75.93 198.36 91.66 199.76 C 93.90 200.03 96.45 200.15 98.12 201.88 C 99.98 203.71 100.01 206.50 100.30 208.93 C 101.63 225.27 101.74 241.77 99.89 258.08 C 99.65 261.49 96.41 263.81 93.15 263.83 C 76.44 265.46 59.54 265.47 42.84 263.80 C 39.24 263.79 36.21 260.79 36.21 257.19 C 34.54 240.15 34.48 222.92 36.31 205.89 C 36.50 201.79 40.63 199.67 44.33 199.78 Z" />
<path fill="#000000" d=" M 154.41 199.87 C 157.06 200.21 160.44 199.31 162.42 201.62 C 164.23 203.69 163.43 206.71 163.74 209.21 C 160.78 208.92 156.73 209.96 155.03 206.76 C 154.19 204.58 154.57 202.16 154.41 199.87 Z" />
<path fill="#000000" d=" M 199.91 199.88 C 202.65 200.17 206.18 199.32 208.09 201.89 C 209.55 204.01 208.81 206.82 209.11 209.24 C 206.17 208.94 202.09 209.90 200.45 206.69 C 199.73 204.50 200.05 202.14 199.91 199.88 Z" />
<path fill="#51b2b0" d=" M 53.57 208.85 C 64.67 207.97 75.88 207.96 86.94 209.35 C 89.29 209.49 90.75 211.70 90.79 213.91 C 92.08 226.21 92.16 238.69 90.60 250.97 C 90.36 253.18 88.21 254.46 86.16 254.54 C 73.93 255.84 61.52 255.91 49.31 254.41 C 47.00 254.26 45.54 252.14 45.47 249.97 C 44.18 237.50 44.00 224.82 45.74 212.40 C 46.55 208.88 50.78 209.17 53.57 208.85 Z" />
<path fill="#000000" d=" M 57.50 218.65 C 64.21 217.42 71.16 217.56 77.91 218.45 C 79.81 218.63 81.37 220.17 81.55 222.08 C 82.46 228.63 82.48 235.35 81.50 241.90 C 81.29 243.76 79.69 245.13 77.87 245.32 C 71.43 246.22 64.83 246.23 58.38 245.32 C 56.42 245.14 54.85 243.57 54.68 241.61 C 53.78 235.42 53.83 229.10 54.55 222.89 C 54.69 221.10 55.55 219.06 57.50 218.65 Z" />
<path fill="#000000" d=" M 108.89 218.15 C 111.61 218.46 115.12 217.49 117.09 219.95 C 118.65 222.10 117.93 225.00 118.24 227.48 C 115.40 227.19 111.65 228.12 109.79 225.30 C 108.58 223.15 109.12 220.52 108.89 218.15 Z" />
<path fill="#000000" d=" M 145.47 217.86 C 147.72 218.68 150.24 219.24 151.95 221.06 C 153.58 222.78 154.10 225.18 154.85 227.36 C 157.88 227.37 160.91 227.37 163.93 227.48 C 163.13 229.68 162.58 232.12 160.84 233.82 C 159.13 235.52 156.68 236.02 154.48 236.79 C 154.50 239.69 154.50 242.59 154.50 245.50 C 157.46 245.50 160.42 245.50 163.39 245.52 C 163.57 242.45 163.70 238.48 167.04 237.08 C 170.49 235.92 174.46 236.01 177.96 236.93 C 181.45 238.13 181.81 242.16 182.00 245.28 C 184.53 245.61 187.59 245.44 189.35 247.67 C 191.66 250.59 190.86 254.66 190.78 258.12 C 190.60 261.48 187.33 263.93 184.07 263.72 C 178.62 263.62 173.07 264.25 167.69 263.31 C 163.90 262.22 163.48 257.90 163.39 254.60 C 158.84 254.48 154.23 255.04 149.73 254.29 C 145.91 253.34 145.22 249.04 145.13 245.73 C 142.79 245.38 140.04 245.62 138.23 243.82 C 136.15 241.94 136.36 238.92 136.00 236.39 C 133.09 236.37 130.17 236.37 127.25 236.36 C 127.25 239.33 127.25 242.29 127.23 245.26 C 129.73 245.62 132.72 245.37 134.58 247.42 C 136.47 249.32 136.13 252.21 136.48 254.65 C 139.57 254.62 142.67 254.62 145.76 254.69 C 144.89 258.91 142.10 263.27 137.38 263.56 C 127.81 263.98 118.21 263.69 108.63 263.68 C 109.40 261.53 109.94 259.18 111.52 257.46 C 113.24 255.60 115.81 255.04 118.12 254.27 C 118.12 251.35 118.12 248.43 118.13 245.51 C 114.96 245.50 111.79 245.51 108.63 245.45 C 109.47 243.18 110.04 240.63 111.88 238.91 C 113.51 237.38 115.77 236.90 117.81 236.15 C 117.91 232.66 118.91 228.04 123.09 227.53 C 130.50 227.12 137.94 227.51 145.36 227.37 C 145.37 224.20 145.37 221.03 145.47 217.86 Z" />
<path fill="#000000" d=" M 251.01 218.96 C 255.17 217.66 259.64 218.37 263.93 218.37 C 263.00 221.52 261.72 225.04 258.44 226.41 C 254.17 228.06 249.46 227.21 245.01 227.30 C 245.95 223.95 247.42 220.21 251.01 218.96 Z" />
<path fill="#000000" d=" M 236.16 227.30 C 238.98 227.58 242.74 226.53 244.59 229.35 C 245.85 231.45 245.20 234.13 245.48 236.47 C 242.75 236.13 239.21 237.16 237.26 234.66 C 235.71 232.56 236.42 229.73 236.16 227.30 Z" />
<path fill="#000000" d=" M 254.41 236.28 C 257.01 236.56 260.19 235.72 262.23 237.78 C 264.27 239.83 263.43 242.99 263.72 245.58 C 260.92 245.30 257.25 246.29 255.34 243.61 C 254.01 241.43 254.64 238.70 254.41 236.28 Z" />
<path fill="#000000" d=" M 190.84 236.28 C 193.55 236.56 196.98 235.67 198.92 238.13 C 200.56 240.22 199.80 243.13 200.13 245.59 C 197.25 245.31 193.42 246.31 191.58 243.42 C 190.43 241.26 191.05 238.62 190.84 236.28 Z" />
<path fill="#000000" d=" M 245.47 245.15 C 247.68 245.93 250.11 246.49 251.83 248.20 C 253.56 249.92 254.07 252.40 254.85 254.62 C 257.89 254.62 260.92 254.62 263.96 254.70 C 262.99 258.00 261.55 261.71 258.01 262.95 C 253.82 264.50 247.20 264.49 245.69 259.30 C 244.97 254.63 245.48 249.86 245.47 245.15 Z" />
<path fill="#000000" d=" M 205.34 255.41 C 209.56 254.00 214.12 254.79 218.49 254.68 C 217.58 257.93 216.18 261.56 212.75 262.87 C 208.55 264.38 203.95 263.60 199.59 263.68 C 200.46 260.39 201.88 256.73 205.34 255.41 Z" />
</svg>
